<!-- Generated by IcoMoon.io -->
<svg version="1.1" xmlns="http://www.w3.org/2000/svg" width="3152" height="1024" viewBox="0 0 3152 1024">
<title></title>
<g id="icomoon-ignore">
</g>
<path d="M2963.556 611.32v-204.8h-70.797v-67.753h70.797v-120.109h75.495v120.109h97.541v67.753h-97.541v200.182c0 44.654 18.874 63.133 53.489 63.133 14.155 0 23.592-1.54 34.615-6.16l26.724 63.135c-17.288 7.7-34.595 10.778-59.773 10.778-86.518 0-130.55-46.194-130.55-126.267zM2479.064 535.867c0-110.869 78.647-207.878 195.062-207.878 119.547 0 195.042 81.611 195.042 207.878 0 6.16-1.566 13.86-1.566 13.86h-316.175c4.718 83.151 64.492 127.807 127.418 127.807 44.032 0 88.084-16.938 108.524-67.755l66.078 27.718c-23.592 55.435-81.8 106.249-174.602 106.249-117.981 0-199.78-90.851-199.78-207.88zM2674.126 394.202c-55.055 0-99.107 36.956-114.829 93.931h231.223c-1.566-33.876-31.463-93.931-116.395-93.931zM2112.552 675.995h-3.152v53.895h-72.343v-569.745h75.495v180.163l-3.152 53.895h3.152c23.592-35.416 72.363-67.753 136.855-67.753 100.673 0 190.323 89.311 190.323 207.878 0 118.569-88.084 207.88-190.323 207.88-64.492 1.54-114.829-29.256-136.855-66.213zM2362.669 535.867c0-87.771-59.773-141.665-127.418-141.665-66.078 0-127.418 52.355-127.418 141.665 0 89.313 59.773 141.667 127.418 141.667 67.644-1.54 127.418-53.895 127.418-141.667zM1606.044 612.86c0-89.311 81.798-137.045 174.604-137.045 53.483 0 92.809 15.398 108.538 24.636v-10.778c0-58.515-48.762-95.471-103.818-95.471-40.9 0-81.798 20.018-95.955 56.975l-69.212-29.258c14.157-35.416 61.348-95.469 162.021-95.469 97.527 0 177.75 56.975 177.75 167.844v235.596h-72.359v-53.895h-3.146c-22.022 32.336-62.92 67.753-130.56 67.753-80.223 0-147.864-49.274-147.864-130.887zM1889.186 562.045c0 0-31.459-26.178-95.953-26.178-78.651 0-110.11 41.576-110.11 76.993 0 41.576 44.044 61.595 83.37 61.595 59.773 1.54 122.693-47.736 122.693-112.409zM1264.7 340.307l-3.146 53.895h3.146c20.45-35.416 72.359-67.753 125.842-67.753 102.245 0 152.582 67.753 152.582 164.764v238.676h-75.505v-227.898c0-81.611-40.898-107.789-99.099-107.789-64.494 0-105.392 60.055-105.392 120.109v215.578h-75.505v-569.745h75.505l1.572 180.163zM808.528 675.995h-3.146l3.146 53.895v172.464h-75.505v-562.045h72.359v53.895h3.146c23.594-35.416 72.359-67.753 136.851-67.753 100.673 0 190.335 89.311 190.335 207.878 0 118.569-89.662 209.42-191.908 209.42-62.92 0-113.256-30.796-135.278-67.753zM1058.637 535.867c0-87.771-59.775-141.665-127.416-141.665-66.066 0-127.414 52.355-127.414 141.665 0 89.313 59.775 141.667 127.414 141.667 67.64-1.54 127.416-53.895 127.416-141.667zM578.867 731.429h75.505v-571.285h-75.505v571.285zM231.233 160.145l-220.222 571.285h83.37l56.628-155.526h245.389l56.629 155.526h81.796l-220.22-571.285h-83.37zM270.557 249.456h3.146l95.955 258.695h-193.481l94.38-258.695z"></path>
</svg>
