<!-- Generated by IcoMoon.io -->
<svg version="1.1" xmlns="http://www.w3.org/2000/svg" width="3132" height="1024" viewBox="0 0 3132 1024">
<title></title>
<g id="icomoon-ignore">
</g>
<path d="M1889.655 732.969c-189.121 78.533-393.873 117.029-579.869 117.029-276.649 0-543.921-73.915-761.177-198.642-18.755-10.778-32.822 9.24-17.191 23.098 200.061 177.082 465.771 284.873 761.175 284.873 209.442 0 453.269-66.215 622.072-187.862 26.57-20.018 1.562-50.817-25.010-38.496z"></path>
<path d="M1783.372 663.674c-14.067 10.78-10.941 24.638 4.69 23.098 53.142-6.158 175.054-20.018 196.935 7.7 21.883 27.716-23.444 138.585-43.763 189.402-6.252 15.398 7.815 21.556 20.319 10.778 90.662-73.913 114.094-230.978 93.774-252.534-18.753-26.178-176.614-44.656-271.956 21.556z"></path>
<path d="M2111.608 474.275c-51.581-29.258-112.544-36.956-168.809-35.416l153.168-215.58c14.075-18.478 21.885-30.797 21.885-40.036v-55.435c0-10.779-7.811-15.399-17.187-15.399h-295.41c-9.379 0-15.631 7.699-15.631 15.399v64.674c0 10.779 7.815 15.399 17.193 15.399h154.736l-178.182 249.456c-10.941 15.398-10.941 33.876-10.941 44.654v66.215c0 10.778 10.941 20.018 20.319 13.858 100.031-52.355 220.373-47.736 311.027 0 10.943 6.16 21.885-6.16 21.885-13.858v-67.755c0-10.778-3.112-18.478-14.055-26.176z"></path>
<path d="M626.758 597.462h90.654c10.941 0 17.193-7.7 17.193-15.398v-240.216c0-52.357-3.126-124.729 62.52-124.729 64.082 0 54.704 73.913 54.704 124.729v240.216c0 9.238 7.817 15.398 15.631 15.398h90.652c10.943 0 17.193-7.7 17.193-15.398v-240.216c0-26.178-1.562-64.675 9.379-87.773 9.379-23.096 31.26-36.956 53.142-36.956 26.572 0 46.889 9.24 51.579 38.496 4.688 18.478 3.126 66.215 3.126 84.693v240.216c0 9.238 7.815 15.398 15.629 15.398h90.654c10.941 0 17.193-7.7 17.193-15.398v-286.413c0-49.274 6.25-104.71-23.446-141.666-25.008-33.877-67.209-50.815-103.157-50.815-51.579 0-101.595 27.717-123.476 84.692-25.008-56.974-59.394-84.692-115.662-84.692-54.706 0-95.342 27.717-117.224 84.692h-1.564v-58.514c0-9.239-7.815-13.859-15.629-15.399h-82.84c-10.941 0-17.193 7.699-17.193 15.399v452.716c-4.688 9.238 1.564 15.398 10.941 16.938z"></path>
<path d="M2371.062 103.169c-129.727 0-201.628 110.869-201.628 250.996 0 140.125 71.901 252.534 201.628 252.534 125.028 0 204.74-110.869 204.74-247.916 1.566-141.665-70.335-255.614-204.74-255.614zM2371.062 512.769c-70.335 0-70.335-118.569-70.335-174.004s4.678-143.205 70.335-143.205c29.696 0 48.449 12.318 57.826 44.656 10.943 35.416 12.509 81.611 12.509 120.107 3.112 58.515 0 152.445-70.335 152.445z"></path>
<path d="M2883.725 103.169c-62.524 0-96.919 30.797-121.916 92.391h-1.566v-69.293c-1.566-7.699-9.377-12.319-15.621-12.319h-82.844c-9.377 0-15.641 7.699-17.187 13.859v452.715c0 9.24 7.811 15.4 15.621 15.4h89.088c10.943 0 17.187-7.7 17.187-15.4v-243.296c0-30.796 1.566-58.513 14.075-86.231 10.943-21.558 31.262-35.416 51.581-35.416 62.524 0 56.26 72.373 56.26 121.647v246.376c1.566 7.7 7.811 13.858 15.641 13.858h90.654c9.377 0 15.621-6.158 17.187-13.858v-284.871c0-44.656 0-104.711-23.452-140.127-24.998-41.576-64.070-55.435-104.709-55.435z"></path>
<path d="M1556.739 291.031c-51.577 6.16-118.786 10.78-168.803 30.798-56.268 24.636-95.342 72.373-95.342 144.745 0 92.391 57.832 137.047 134.417 137.047 64.084 0 98.469-13.86 148.486-64.675 15.629 23.098 21.881 33.876 51.577 58.515 7.815 3.080 14.067 3.080 21.881-1.54 17.193-15.398 51.579-43.116 68.773-58.515 7.815-6.16 6.252-15.398 0-23.098-15.631-23.096-32.822-40.036-32.822-81.611v-137.047c0-58.515 4.688-112.409-39.077-152.445-32.822-32.337-92.216-44.656-135.979-44.656-85.966 0-179.744 30.797-200.063 133.966-1.562 10.78 6.252 16.94 12.505 18.478l84.402 10.78c9.377 0 14.067-9.24 15.629-15.398 7.815-35.416 37.513-52.356 71.897-52.356 18.757 0 39.077 7.699 51.579 23.097 12.505 18.478 10.941 43.116 10.941 64.675v9.238zM1537.984 474.273c-14.067 24.638-35.948 40.036-62.52 40.036-34.386 0-54.704-26.176-54.704-64.673 0-75.453 68.771-89.311 134.417-89.311v18.478c1.562 36.956 1.562 66.213-17.193 95.469z"></path>
<path d="M540.794 514.309c-15.629-23.096-32.822-40.036-32.822-81.611v-137.047c0-58.515 4.688-112.409-39.075-152.445-34.386-32.337-92.216-44.656-135.981-44.656-85.964 0-179.744 30.797-200.062 133.966-1.563 10.78 6.252 16.94 12.504 18.478l87.528 9.24c9.379 0 14.067-9.24 15.629-15.398 7.817-35.416 37.513-52.355 73.461-52.355 18.755 0 39.075 7.699 51.579 23.097 12.503 18.478 10.941 43.116 10.941 64.675v10.778c-53.142 6.16-120.35 10.78-170.365 30.798-56.269 24.636-95.343 72.373-95.343 144.745 0 92.391 57.831 137.047 134.418 137.047 64.082 0 98.469-13.86 148.484-64.675 15.629 23.098 21.881 33.876 51.577 58.515 7.817 3.080 14.067 3.080 21.883-1.54 17.191-15.398 51.577-43.116 68.771-58.515 4.688-6.16 3.126-15.398-3.126-23.098zM365.741 474.273c-14.067 24.638-35.95 40.036-62.52 40.036-34.386 0-53.142-26.176-53.142-64.673 0-75.453 68.771-89.311 134.417-89.311v18.478c-3.126 36.956-1.564 66.213-18.755 95.469z"></path>
</svg>
