<?xml version="1.0" standalone="no"?>
<!DOCTYPE svg PUBLIC "-//W3C//DTD SVG 20010904//EN"
 "http://www.w3.org/TR/2001/REC-SVG-20010904/DTD/svg10.dtd">
<svg version="1.0" xmlns="http://www.w3.org/2000/svg"
 width="35.000000pt" height="35.000000pt" viewBox="0 0 35.000000 35.000000"
 preserveAspectRatio="xMidYMid meet">

<g transform="translate(0.000000,35.000000) scale(0.100000,-0.100000)"
fill="#000000" stroke="none">
<path d="M100 311 c-19 -10 -45 -36 -57 -57 -65 -112 16 -240 145 -231 31 2
60 10 69 20 24 23 11 30 -23 12 -85 -44 -194 23 -194 120 0 69 66 135 135 135
44 0 96 -31 117 -71 23 -43 21 -102 -5 -107 -30 -6 -47 17 -47 63 l0 42 -47 2
c-31 1 -52 -4 -65 -15 -23 -22 -24 -76 0 -97 22 -20 73 -22 90 -5 9 9 15 9 24
0 7 -7 24 -12 40 -12 32 0 48 24 48 72 0 109 -131 182 -230 129z m108 -103
c15 -15 15 -51 0 -66 -15 -15 -51 -15 -66 0 -7 7 -12 21 -12 33 0 12 5 26 12
33 7 7 21 12 33 12 12 0 26 -5 33 -12z"/>
</g>
</svg>
