<?xml version="1.0" standalone="no"?>
<!DOCTYPE svg PUBLIC "-//W3C//DTD SVG 20010904//EN"
 "http://www.w3.org/TR/2001/REC-SVG-20010904/DTD/svg10.dtd">
<svg version="1.0" xmlns="http://www.w3.org/2000/svg"
 width="512.000000pt" height="512.000000pt" viewBox="0 0 512.000000 512.000000"
 preserveAspectRatio="xMidYMid meet">

<g transform="translate(0.000000,512.000000) scale(0.100000,-0.100000)"
fill="#000000" stroke="none">
<path d="M2035 4824 c-264 -162 -803 -489 -1198 -726 -394 -236 -739 -447
-767 -469 -34 -27 -52 -50 -59 -76 -7 -25 -11 -327 -11 -887 l0 -850 27 -39
c68 -97 373 -324 1043 -774 709 -475 982 -664 1248 -862 174 -129 218 -150
281 -133 20 5 128 74 241 154 547 386 949 665 1588 1101 271 186 529 364 573
398 132 100 119 -11 119 994 0 827 -1 872 -19 911 -10 23 -32 50 -47 61 -16
11 -193 118 -394 238 -455 272 -799 483 -1423 872 -509 317 -627 383 -686 383
-30 0 -124 -54 -516 -296z m363 -801 l-3 -647 -305 -188 c-168 -103 -380 -233
-472 -289 l-167 -102 -79 54 c-322 222 -912 635 -912 639 0 6 1921 1178 1933
1179 4 1 6 -290 5 -646z m1301 57 c528 -322 960 -588 958 -592 -1 -5 -930
-654 -973 -681 -6 -3 -224 124 -485 282 l-474 289 -3 647 c-1 373 2 645 7 643
5 -1 441 -266 970 -588z m-2951 -1184 c344 -240 399 -281 384 -291 -9 -7 -186
-112 -392 -235 -206 -123 -385 -230 -397 -238 l-23 -14 0 536 c0 447 2 536 13
529 8 -4 194 -134 415 -287z m4048 -773 c-5 -5 -810 485 -813 495 -1 4 181
134 405 289 l407 282 3 -531 c1 -292 0 -533 -2 -535z m-1816 725 c220 -134
399 -246 397 -250 -1 -4 -184 -133 -406 -288 -313 -217 -409 -280 -422 -273
-26 12 -809 557 -809 563 1 12 816 499 828 495 7 -3 193 -114 412 -247z
m-1017 -798 l437 -303 0 -639 c0 -534 -2 -638 -14 -631 -39 23 -1926 1339
-1926 1343 0 3 220 138 488 302 l487 296 45 -32 c25 -17 242 -168 483 -336z
m2245 50 c249 -151 452 -277 452 -280 0 -4 -1890 -1322 -1926 -1343 -12 -7
-14 89 -14 631 l0 639 248 171 c136 94 353 245 482 335 l235 164 36 -21 c20
-11 239 -145 487 -296z"/>
</g>
</svg>
