<?xml version="1.0" standalone="no"?>
<!DOCTYPE svg PUBLIC "-//W3C//DTD SVG 20010904//EN"
 "http://www.w3.org/TR/2001/REC-SVG-20010904/DTD/svg10.dtd">
<svg version="1.0" xmlns="http://www.w3.org/2000/svg"
 width="512.000000pt" height="512.000000pt" viewBox="0 0 512.000000 512.000000"
 preserveAspectRatio="xMidYMid meet">

<g transform="translate(0.000000,512.000000) scale(0.100000,-0.100000)"
fill="#000000" stroke="none">
<path d="M2370 5114 c-19 -2 -78 -9 -130 -15 -548 -62 -1083 -325 -1489 -730
-405 -406 -651 -906 -732 -1489 -20 -143 -18 -527 4 -670 89 -580 328 -1058
728 -1459 658 -657 1607 -906 2504 -654 929 260 1646 1043 1819 1987 156 845
-103 1682 -705 2285 -399 398 -879 639 -1449 726 -100 15 -472 28 -550 19z
m400 -305 c452 -41 890 -224 1242 -518 105 -88 298 -287 298 -308 0 -18 -197
-155 -375 -262 -269 -161 -620 -321 -870 -396 -49 -15 -95 -30 -102 -32 -7 -3
-40 50 -82 135 -184 366 -460 807 -746 1189 -83 112 -100 139 -87 144 28 10
201 39 287 48 118 12 304 12 435 0z m-955 -266 c131 -171 215 -287 340 -473
228 -339 513 -844 483 -855 -23 -7 -198 -34 -338 -52 -190 -24 -728 -24 -920
0 -296 37 -541 87 -785 159 -77 23 -142 43 -144 44 -2 2 15 48 39 101 215 489
592 881 1075 1119 82 41 152 74 155 74 3 0 46 -53 95 -117z m2724 -891 c195
-355 293 -767 278 -1169 -3 -79 -8 -147 -11 -150 -3 -4 -77 10 -164 31 -416
98 -690 131 -1088 131 l-281 0 -33 100 c-18 55 -61 172 -96 259 -35 88 -63
160 -62 161 2 2 44 15 93 30 355 107 844 352 1185 595 69 49 127 89 130 89 3
1 25 -34 49 -77z m-4113 -593 c112 -39 440 -118 614 -148 260 -45 428 -61 700
-68 325 -8 605 14 903 68 62 12 119 22 127 23 9 0 28 -31 53 -89 47 -106 147
-373 147 -389 0 -6 -48 -21 -108 -34 -265 -58 -607 -201 -827 -348 -377 -250
-674 -594 -893 -1032 l-86 -173 -74 73 c-535 527 -778 1284 -646 2018 15 86
23 120 28 120 2 0 29 -9 62 -21z m3569 -883 c230 -28 474 -75 693 -132 48 -13
62 -21 62 -36 0 -10 -19 -76 -41 -146 -188 -578 -598 -1052 -1147 -1327 -52
-26 -95 -45 -97 -43 -1 2 3 40 10 85 28 170 38 362 32 616 -7 321 -38 561
-114 881 -21 90 -23 110 -12 118 20 14 461 2 614 -16z m-895 -161 c123 -505
144 -1053 60 -1508 -12 -62 -25 -119 -29 -126 -5 -7 -62 -23 -127 -36 -535
-107 -1065 -22 -1554 248 -159 88 -149 72 -111 164 250 600 714 1066 1271
1276 171 65 435 134 452 118 3 -3 20 -64 38 -136z"/>
</g>
</svg>
