<?xml version="1.0" standalone="no"?>
<!DOCTYPE svg PUBLIC "-//W3C//DTD SVG 20010904//EN"
 "http://www.w3.org/TR/2001/REC-SVG-20010904/DTD/svg10.dtd">
<svg version="1.0" xmlns="http://www.w3.org/2000/svg"
 width="512.000000pt" height="513.000000pt" viewBox="0 0 512.000000 513.000000"
 preserveAspectRatio="xMidYMid meet">

<g transform="translate(0.000000,513.000000) scale(0.100000,-0.100000)"
fill="#000000" stroke="none">
<path d="M2905 5123 c-68 -9 -226 -53 -301 -82 -385 -154 -636 -462 -736 -904
-17 -79 -21 -139 -27 -412 l-6 -320 -280 -5 c-236 -4 -285 -8 -311 -22 -46
-25 -111 -101 -123 -144 -7 -25 -11 -199 -11 -485 l0 -445 26 -52 c14 -29 42
-66 62 -82 65 -53 108 -60 389 -60 l253 0 0 -955 c0 -1054 -4 -994 63 -1063
18 -19 50 -43 72 -55 39 -22 47 -22 520 -22 475 0 480 0 521 22 48 25 101 83
120 129 12 28 14 201 14 988 l0 955 328 3 c312 3 329 4 367 24 51 28 91 68
119 119 20 39 21 52 24 470 2 293 0 446 -8 482 -14 66 -57 124 -117 160 l-48
28 -330 5 -330 5 0 190 c1 105 4 207 8 228 14 70 22 71 362 77 257 5 306 8
340 23 50 22 100 70 128 122 22 39 22 48 22 475 0 430 0 436 -22 476 -28 52
-71 96 -116 118 -31 14 -86 16 -489 15 -249 -1 -466 -4 -483 -6z m813 -600
l-3 -318 -270 -6 c-213 -4 -281 -9 -322 -22 -110 -36 -204 -127 -237 -231 -27
-82 -38 -240 -34 -489 3 -246 7 -266 56 -310 47 -43 81 -46 440 -47 l342 0 0
-345 0 -345 -356 0 c-341 0 -358 -1 -393 -21 -20 -11 -48 -36 -61 -56 l-25
-37 -3 -993 -2 -993 -355 0 -355 0 -2 993 -3 993 -25 37 c-13 20 -41 45 -61
56 -35 20 -53 21 -338 21 l-301 0 0 345 0 345 288 0 c300 1 338 6 384 47 52
47 52 50 59 478 6 389 7 403 32 495 42 156 90 256 174 368 125 165 323 282
549 326 115 22 118 23 487 24 l337 2 -2 -317z"/>
</g>
</svg>
