<!-- Generated by IcoMoon.io -->
<svg version="1.1" xmlns="http://www.w3.org/2000/svg" width="3152" height="1024" viewBox="0 0 3152 1024">
<title></title>
<g id="icomoon-ignore">
</g>
<path d="M778.64 357.245h-368.084v106.249h261.12c-12.585 149.365-139.999 214.040-261.12 214.040-154.154 0-287.861-118.569-287.861-284.873 1.573-161.684 128.986-284.872 289.433-284.872 124.269 0 196.628 76.993 196.628 76.993l77.077-76.993c0 0-97.527-106.25-276.849-106.25-229.66-1.54-404.265 186.322-404.265 389.582 0 198.64 165.166 392.662 408.983 392.662 213.93 0 371.23-143.205 371.23-355.705 0-44.656-6.293-70.833-6.293-70.833z"></path>
<path d="M1079.085 280.253c-151.008 0-259.546 115.489-259.546 249.454 0 137.047 105.392 254.076 261.12 254.076 141.569 0 256.4-106.251 256.4-250.996 0-167.844-133.706-252.534-257.974-252.534zM1080.659 378.804c73.931 0 144.715 58.513 144.715 152.443 0 92.391-69.212 152.445-144.715 152.445-81.798 0-146.291-64.673-146.291-153.986-1.572-86.231 62.922-150.903 146.291-150.903z"></path>
<path d="M1642.223 280.253c-151.008 0-259.546 115.489-259.546 249.454 0 137.047 105.392 254.076 261.12 254.076 141.571 0 256.4-106.251 256.4-250.996 0-167.844-133.706-252.534-257.974-252.534zM1643.797 378.804c73.931 0 144.715 58.513 144.715 152.443 0 92.391-69.212 152.445-144.715 152.445-81.798 0-146.291-64.673-146.291-153.986-1.572-86.231 62.922-150.903 146.291-150.903z"></path>
<path d="M2194.352 280.253c-138.421 0-246.965 118.567-246.965 252.534 0 150.905 125.832 252.536 245.399 252.536 73.929 0 111.676-29.258 141.553-61.595v49.274c0 86.233-53.469 138.587-135.268 138.587-78.647 0-117.981-56.975-132.136-89.311l-100.671 40.036c34.607 72.373 105.39 147.825 231.241 147.825 136.835 0 242.226-84.693 242.226-263.315v-451.176h-108.524v43.116c-31.463-35.416-77.081-58.515-136.855-58.515zM2203.789 378.804c67.644 0 136.855 56.973 136.855 153.983 0 98.551-69.21 152.445-138.421 152.445-73.949 0-143.159-58.515-143.159-152.445 1.586-97.011 72.363-153.983 144.725-153.983z"></path>
<path d="M2921.091 278.713c-130.57 0-240.68 101.629-240.68 250.994 0 158.606 122.699 252.536 253.249 252.536 108.544 0 176.188-58.515 215.502-110.869l-89.65-58.515c-23.592 35.416-61.36 69.293-125.852 69.293-72.363 0-105.392-38.496-125.832-76.993l344.486-140.125-17.308-41.576c-34.595-76.993-111.676-144.745-213.916-144.745zM2924.223 375.722c47.204 0 80.233 24.638 95.955 53.897l-231.223 93.929c-9.437-72.373 61.34-147.825 135.268-147.825z"></path>
<path d="M2515.245 768.386h113.262v-742.208h-113.262v742.208z"></path>
</svg>
