<!-- Generated by IcoMoon.io -->
<svg version="1.1" xmlns="http://www.w3.org/2000/svg" width="3152" height="1024" viewBox="0 0 3152 1024">
<title></title>
<g id="icomoon-ignore">
</g>
<path d="M442.017 890.033c-47.19 7.7-94.381 10.778-144.717 16.938l-151.009-434.238v452.716c-47.19 4.62-89.662 10.778-135.279 18.478v-829.979h125.841l171.458 471.193v-471.193h133.706v776.084zM703.137 418.838c51.909 0 130.56-3.080 177.75-3.080v129.349c-58.201 0-127.414 0-177.75 3.078v192.482c77.077-4.62 155.728-10.778 234.378-13.858v124.727l-366.51 27.718v-765.306h366.51v129.348h-234.378c0 1.54 0 175.542 0 175.542zM1428.295 244.836h-136.853v595.922c-44.044 0-89.662 0-132.132 1.54v-597.462h-136.853v-130.888h407.409c-1.572 0-1.572 130.888-1.572 130.888zM1643.797 409.6h180.897v129.347h-180.897v294.111h-130.56v-719.11h369.658v129.348h-239.098c0 1.54 0 166.304 0 166.304zM2098.397 719.109c75.495 1.54 151.010 7.7 224.939 10.78v127.807c-117.981-7.7-235.942-13.86-357.071-16.938v-726.81h132.132v605.161zM2435.012 866.934c42.486 3.080 86.518 4.62 130.57 9.24v-762.226h-130.57v752.986zM3144.443 113.949l-168.297 394.202 168.297 434.236c-50.337-6.158-99.087-15.398-149.424-23.098l-94.389-240.216-97.521 220.198c-47.184-7.698-94.389-10.778-141.573-16.938l169.884-378.802-154.162-389.582h141.573l86.518 217.119 92.803-217.119h146.291z"></path>
</svg>
