<!-- Generated by IcoMoon.io -->
<svg version="1.1" xmlns="http://www.w3.org/2000/svg" width="3152" height="1024" viewBox="0 0 3152 1024">
<title></title>
<g id="icomoon-ignore">
</g>
<path d="M676.394 238.676c0-4.62-4.718-6.16-7.865-7.7-3.146 0-70.785-4.618-70.785-4.618s-47.19-46.196-51.911-50.816c-4.718-4.62-15.729-3.080-18.876-3.080 0 0-11.011 3.080-26.74 7.699-15.731-44.656-42.472-84.692-91.234-84.692h-4.72c-14.157-18.478-31.459-26.177-45.616-26.177-113.256 0-166.74 138.587-184.043 209.42-44.044 13.858-75.505 23.098-78.651 23.098-23.595 7.698-25.168 7.698-28.314 30.796-3.146 20.018-67.639 508.151-67.639 508.151l501.79 92.391 272.131-56.975c-1.572-1.54-95.953-632.878-97.527-637.498zM473.476 189.401c-12.583 4.619-26.74 7.699-42.47 12.319v-9.239c0-27.717-4.72-49.275-11.011-67.753 25.168 6.159 42.47 33.877 53.481 64.674zM390.106 132.427c6.293 16.938 11.011 41.576 11.011 73.913v4.618c-26.74 7.7-58.201 16.94-88.088 26.178 17.304-61.594 48.764-93.931 77.077-104.71zM355.501 101.63c4.718 0 9.437 1.54 14.157 4.619-36.179 16.938-75.505 58.514-91.234 143.205-23.596 7.7-47.19 13.86-69.212 21.558 20.448-64.673 66.066-169.383 146.289-169.383z"></path>
<path d="M670.104 232.516c-3.146 0-70.787-4.62-70.787-4.62s-47.19-46.194-51.909-50.814c-1.572-1.54-4.718-3.080-7.865-3.080l-37.753 759.147 272.131-56.975c0 0-95.953-631.338-95.953-635.958-1.572-6.16-4.718-7.7-7.865-7.7z"></path>
<path d="M408.984 378.804l-33.033 97.011c0 0-29.889-15.398-66.068-15.398-53.481 0-55.055 32.336-55.055 40.034 0 44.656 117.977 61.595 117.977 166.304 0 81.613-53.483 135.507-124.267 135.507-86.516 0-130.561-52.355-130.561-52.355l23.595-73.913c0 0 45.617 38.496 83.369 38.496 25.168 0 34.607-20.018 34.607-33.876 0-58.515-97.527-61.595-97.527-157.066 0-80.073 59.774-158.604 177.751-158.604 47.19 1.54 69.212 13.858 69.212 13.858z"></path>
<path d="M1090.096 562.045c-26.74-13.858-40.898-26.178-40.898-43.116 0-21.558 18.876-35.416 50.337-35.416 34.605 0 66.066 13.858 66.066 13.858l25.168-73.913c0 0-23.594-16.938-89.662-16.938-92.807 0-158.873 52.357-158.873 126.269 0 41.574 29.887 73.913 70.785 97.009 33.033 18.478 44.044 30.798 44.044 50.817s-15.729 35.416-47.19 35.416c-45.616 0-88.088-23.098-88.088-23.098l-25.168 72.373c0 0 39.326 26.178 105.392 26.178 95.953 0 165.165-46.196 165.165-129.347 0-44.656-34.605-76.993-77.077-100.091zM1472.339 406.52c-47.19 0-84.944 21.558-113.258 55.435h-1.572l40.898-209.418h-106.964l-103.82 532.787h106.966l36.179-183.242c14.155-69.293 50.335-112.409 84.942-112.409 23.594 0 33.033 15.398 33.033 38.496 0 13.858-1.572 32.336-4.718 46.194l-40.9 209.42h106.966l42.472-215.578c4.718-23.098 7.865-50.817 7.865-67.755-1.574-58.515-33.033-93.931-88.088-93.931zM1801.098 406.52c-128.986 0-213.93 113.949-213.93 240.216 0 81.613 51.911 146.287 147.864 146.287 125.842 0 210.783-110.869 210.783-240.218 0-75.451-44.044-146.285-144.717-146.285zM1749.189 711.411c-36.179 0-51.909-30.796-51.909-67.753 0-60.055 31.459-158.606 89.66-158.606 37.753 0 50.337 32.336 50.337 63.135 0 64.673-31.461 163.224-88.088 163.224zM2219.51 406.52c-72.343 0-113.242 61.595-113.242 61.595h-1.586l6.305-55.435h-94.389c-4.718 38.496-12.581 95.471-22.020 138.587l-73.931 383.422h106.974l29.877-155.526h1.566c0 0 22.026 13.86 62.926 13.86 125.852 0 207.631-126.269 207.631-252.536 0-72.373-31.443-133.967-110.11-133.967zM2117.271 712.951c-28.311 0-44.032-15.398-44.032-15.398l17.288-98.551c12.589-64.675 47.204-109.329 84.952-109.329 33.029 0 42.466 29.256 42.466 56.975 0 70.833-40.9 166.304-100.673 166.304zM2482.216 255.614c-34.615 0-61.36 26.178-61.36 60.055 0 30.798 20.46 52.355 50.337 52.355h1.586c33.029 0 61.34-21.556 62.906-60.053 0-30.798-20.44-52.357-53.469-52.357zM2332.772 783.784h106.978l72.343-371.104h-106.958l-72.363 371.104zM2784.236 414.22h-73.929l3.132-16.938c6.305-35.416 28.311-67.755 62.926-67.755 18.874 0 34.615 4.62 34.615 4.62l20.44-81.611c0 0-18.874-9.24-58.207-9.24-37.747 0-75.495 10.78-105.392 35.416-36.181 30.798-53.469 73.913-61.34 118.569l-3.152 16.938h-50.337l-15.721 78.533h50.337l-56.641 292.571h106.978l56.621-292.571h73.929l15.741-78.533zM3040.637 414.22c0 0-67.644 164.764-97.541 254.074h-1.566c-1.566-29.256-26.744-254.074-26.744-254.074h-113.262l64.512 340.307c1.566 7.698 0 12.318-1.586 16.938-12.589 23.096-33.029 46.194-58.207 63.133-20.44 13.86-42.466 23.098-59.773 29.258l29.897 89.311c22.026-4.62 66.058-21.558 105.392-56.975 48.771-44.656 94.389-113.949 140.007-207.88l130.55-274.093h-111.676z"></path>
</svg>
