<?xml version="1.0" standalone="no"?>
<!DOCTYPE svg PUBLIC "-//W3C//DTD SVG 20010904//EN"
 "http://www.w3.org/TR/2001/REC-SVG-20010904/DTD/svg10.dtd">
<svg version="1.0" xmlns="http://www.w3.org/2000/svg"
 width="35.000000pt" height="35.000000pt" viewBox="0 0 35.000000 35.000000"
 preserveAspectRatio="xMidYMid meet">

<g transform="translate(0.000000,35.000000) scale(0.100000,-0.100000)"
fill="#000000" stroke="none">
<path d="M202 304 c-13 -9 -27 -27 -32 -40 -12 -31 -38 -31 -84 1 -43 29 -52
31 -60 9 -18 -46 2 -123 38 -153 24 -21 20 -27 -26 -38 l-43 -9 35 -19 c44
-23 133 -24 176 -2 38 20 92 80 99 110 3 12 10 42 15 67 18 73 18 74 -15 76
-16 1 -41 5 -55 9 -16 4 -33 0 -48 -11z m69 -22 c22 -14 26 -23 23 -52 -6 -59
-13 -77 -40 -110 -36 -42 -74 -60 -131 -60 l-48 0 28 23 28 22 -31 19 c-34 19
-60 68 -60 111 0 30 4 31 44 6 17 -11 47 -21 66 -23 32 -3 35 0 38 24 2 15 13
35 25 43 27 19 26 19 58 -3z"/>
</g>
</svg>
