<svg width="35" height="35" viewBox="0 0 35 35" fill="none" xmlns="http://www.w3.org/2000/svg">
<g clip-path="url(#clip0_1_214)">
<path d="M33.5417 4.37502C32.1451 5.36009 30.5989 6.11351 28.9625 6.60627C28.0842 5.59639 26.9169 4.88061 25.6186 4.55574C24.3202 4.23087 22.9534 4.31259 21.703 4.78984C20.4526 5.26709 19.379 6.11685 18.6273 7.22419C17.8755 8.33152 17.4821 9.64301 17.5 10.9813V12.4396C14.9372 12.5061 12.3977 11.9377 10.1077 10.785C7.81775 9.63242 5.84837 7.93136 4.37499 5.83335C4.37499 5.83335 -1.45834 18.9583 11.6667 24.7917C8.66326 26.8304 5.08543 27.8526 1.45833 27.7083C14.5833 35 30.625 27.7083 30.625 10.9375C30.6237 10.5313 30.5846 10.1261 30.5083 9.7271C31.9967 8.25928 33.047 6.40606 33.5417 4.37502V4.37502Z" stroke="#6B7280" stroke-width="3" stroke-linecap="round" stroke-linejoin="round"/>
</g>
<defs>
<clipPath id="clip0_1_214">
<rect width="35" height="35" fill="white"/>
</clipPath>
</defs>
</svg>
